<mxfile host="app.diagrams.net" modified="2024-04-07T14:11:05.295Z" agent="Mozilla/5.0 (Windows NT 10.0; Win64; x64) AppleWebKit/537.36 (KHTML, like Gecko) Chrome/122.0.0.0 Safari/537.36 Avast/122.0.0.0" etag="g_PnYz0qY_DmLWUyL8If" version="24.2.2" type="github">
  <diagram name="Page-1" id="0783ab3e-0a74-02c8-0abd-f7b4e66b4bec">
    <mxGraphModel dx="2171" dy="1324" grid="1" gridSize="10" guides="1" tooltips="1" connect="1" arrows="1" fold="1" page="1" pageScale="1" pageWidth="850" pageHeight="1100" background="none" math="0" shadow="0">
      <root>
        <mxCell id="0" />
        <mxCell id="1" parent="0" />
        <mxCell id="1c1d494c118603dd-1" value="Order Management" style="swimlane;html=1;childLayout=stackLayout;startSize=20;rounded=0;shadow=0;comic=0;labelBackgroundColor=none;strokeWidth=1;fontFamily=Verdana;fontSize=12;align=center;" parent="1" vertex="1">
          <mxGeometry x="40" y="20" width="750" height="990" as="geometry" />
        </mxCell>
        <mxCell id="1c1d494c118603dd-2" value="Customer" style="swimlane;html=1;startSize=20;" parent="1c1d494c118603dd-1" vertex="1">
          <mxGeometry y="20" width="250" height="970" as="geometry" />
        </mxCell>
        <mxCell id="T-8hnJG5RtbYNzTZ3OcR-2" value="" style="ellipse;html=1;shape=startState;fillColor=#000000;strokeColor=#FFFFFF;" parent="1c1d494c118603dd-2" vertex="1">
          <mxGeometry x="120" y="40" width="30" height="30" as="geometry" />
        </mxCell>
        <mxCell id="T-8hnJG5RtbYNzTZ3OcR-4" value="" style="endArrow=classic;html=1;rounded=0;exitX=0.5;exitY=1;exitDx=0;exitDy=0;" parent="1c1d494c118603dd-2" source="T-8hnJG5RtbYNzTZ3OcR-2" edge="1">
          <mxGeometry width="50" height="50" relative="1" as="geometry">
            <mxPoint x="140" y="110" as="sourcePoint" />
            <mxPoint x="135" y="120" as="targetPoint" />
          </mxGeometry>
        </mxCell>
        <mxCell id="T-8hnJG5RtbYNzTZ3OcR-6" style="edgeStyle=orthogonalEdgeStyle;rounded=0;orthogonalLoop=1;jettySize=auto;html=1;" parent="1c1d494c118603dd-2" source="T-8hnJG5RtbYNzTZ3OcR-5" edge="1">
          <mxGeometry relative="1" as="geometry">
            <mxPoint x="380" y="180" as="targetPoint" />
          </mxGeometry>
        </mxCell>
        <mxCell id="T-8hnJG5RtbYNzTZ3OcR-5" value="Place order" style="points=[[0.25,0,0],[0.5,0,0],[0.75,0,0],[1,0.25,0],[1,0.5,0],[1,0.75,0],[0.75,1,0],[0.5,1,0],[0.25,1,0],[0,0.75,0],[0,0.5,0],[0,0.25,0]];shape=mxgraph.bpmn.task;whiteSpace=wrap;rectStyle=rounded;size=10;html=1;container=1;expand=0;collapsible=0;bpmnShapeType=call;strokeWidth=0;" parent="1c1d494c118603dd-2" vertex="1">
          <mxGeometry x="75" y="120" width="115" height="40" as="geometry" />
        </mxCell>
        <mxCell id="T-8hnJG5RtbYNzTZ3OcR-24" value="" style="ellipse;html=1;shape=endState;fillColor=#000000;strokeColor=#000000;" parent="1c1d494c118603dd-2" vertex="1">
          <mxGeometry x="110" y="505" width="30" height="30" as="geometry" />
        </mxCell>
        <mxCell id="T-8hnJG5RtbYNzTZ3OcR-36" value="" style="edgeStyle=orthogonalEdgeStyle;rounded=0;orthogonalLoop=1;jettySize=auto;html=1;" parent="1c1d494c118603dd-2" source="T-8hnJG5RtbYNzTZ3OcR-30" target="T-8hnJG5RtbYNzTZ3OcR-34" edge="1">
          <mxGeometry relative="1" as="geometry" />
        </mxCell>
        <mxCell id="T-8hnJG5RtbYNzTZ3OcR-30" value="Order received" style="rounded=1;whiteSpace=wrap;html=1;" parent="1c1d494c118603dd-2" vertex="1">
          <mxGeometry x="60" y="760" width="120" height="60" as="geometry" />
        </mxCell>
        <mxCell id="T-8hnJG5RtbYNzTZ3OcR-34" value="" style="ellipse;html=1;shape=endState;fillColor=#000000;strokeColor=#000000;" parent="1c1d494c118603dd-2" vertex="1">
          <mxGeometry x="105" y="880" width="30" height="30" as="geometry" />
        </mxCell>
        <mxCell id="1c1d494c118603dd-3" value="Sales&amp;amp;Distribution" style="swimlane;html=1;startSize=20;" parent="1c1d494c118603dd-1" vertex="1">
          <mxGeometry x="250" y="20" width="250" height="970" as="geometry" />
        </mxCell>
        <mxCell id="T-8hnJG5RtbYNzTZ3OcR-8" style="edgeStyle=orthogonalEdgeStyle;rounded=0;orthogonalLoop=1;jettySize=auto;html=1;" parent="1c1d494c118603dd-3" source="T-8hnJG5RtbYNzTZ3OcR-7" edge="1">
          <mxGeometry relative="1" as="geometry">
            <mxPoint x="390" y="240" as="targetPoint" />
          </mxGeometry>
        </mxCell>
        <mxCell id="T-8hnJG5RtbYNzTZ3OcR-7" value="Receive the order" style="points=[[0.25,0,0],[0.5,0,0],[0.75,0,0],[1,0.25,0],[1,0.5,0],[1,0.75,0],[0.75,1,0],[0.5,1,0],[0.25,1,0],[0,0.75,0],[0,0.5,0],[0,0.25,0]];shape=mxgraph.bpmn.task;whiteSpace=wrap;rectStyle=rounded;size=10;html=1;container=1;expand=0;collapsible=0;bpmnShapeType=call;" parent="1c1d494c118603dd-3" vertex="1">
          <mxGeometry x="75" y="180" width="105" height="50" as="geometry" />
        </mxCell>
        <mxCell id="T-8hnJG5RtbYNzTZ3OcR-20" value="Notify the customer it&#39;s not avaliable" style="rounded=1;whiteSpace=wrap;html=1;" parent="1c1d494c118603dd-3" vertex="1">
          <mxGeometry x="68" y="445" width="120" height="60" as="geometry" />
        </mxCell>
        <mxCell id="T-8hnJG5RtbYNzTZ3OcR-28" value="Notify the customer about shipment details" style="rounded=1;whiteSpace=wrap;html=1;" parent="1c1d494c118603dd-3" vertex="1">
          <mxGeometry x="61" y="710" width="120" height="60" as="geometry" />
        </mxCell>
        <mxCell id="1c1d494c118603dd-4" value="Warehouse" style="swimlane;html=1;startSize=20;" parent="1c1d494c118603dd-1" vertex="1">
          <mxGeometry x="500" y="20" width="250" height="970" as="geometry" />
        </mxCell>
        <mxCell id="T-8hnJG5RtbYNzTZ3OcR-14" style="edgeStyle=orthogonalEdgeStyle;rounded=0;orthogonalLoop=1;jettySize=auto;html=1;exitX=0.5;exitY=1;exitDx=0;exitDy=0;exitPerimeter=0;entryX=0.5;entryY=0;entryDx=0;entryDy=0;" parent="1c1d494c118603dd-4" source="T-8hnJG5RtbYNzTZ3OcR-9" target="T-8hnJG5RtbYNzTZ3OcR-13" edge="1">
          <mxGeometry relative="1" as="geometry" />
        </mxCell>
        <mxCell id="T-8hnJG5RtbYNzTZ3OcR-9" value="Verify if product available" style="points=[[0.25,0,0],[0.5,0,0],[0.75,0,0],[1,0.25,0],[1,0.5,0],[1,0.75,0],[0.75,1,0],[0.5,1,0],[0.25,1,0],[0,0.75,0],[0,0.5,0],[0,0.25,0]];shape=mxgraph.bpmn.task;whiteSpace=wrap;rectStyle=rounded;size=10;html=1;container=1;expand=0;collapsible=0;bpmnShapeType=call;" parent="1c1d494c118603dd-4" vertex="1">
          <mxGeometry x="80" y="240" width="120" height="50" as="geometry" />
        </mxCell>
        <mxCell id="T-8hnJG5RtbYNzTZ3OcR-18" style="edgeStyle=orthogonalEdgeStyle;rounded=0;orthogonalLoop=1;jettySize=auto;html=1;entryX=0.5;entryY=0;entryDx=0;entryDy=0;" parent="1c1d494c118603dd-4" source="T-8hnJG5RtbYNzTZ3OcR-13" target="T-8hnJG5RtbYNzTZ3OcR-25" edge="1">
          <mxGeometry relative="1" as="geometry">
            <mxPoint x="140" y="580" as="targetPoint" />
            <Array as="points">
              <mxPoint x="140" y="520" />
              <mxPoint x="141" y="520" />
            </Array>
          </mxGeometry>
        </mxCell>
        <mxCell id="T-8hnJG5RtbYNzTZ3OcR-19" value="If Product not available" style="edgeLabel;html=1;align=center;verticalAlign=middle;resizable=0;points=[];" parent="T-8hnJG5RtbYNzTZ3OcR-18" vertex="1" connectable="0">
          <mxGeometry x="-0.3859" y="1" relative="1" as="geometry">
            <mxPoint as="offset" />
          </mxGeometry>
        </mxCell>
        <mxCell id="T-8hnJG5RtbYNzTZ3OcR-13" value="" style="rhombus;whiteSpace=wrap;html=1;" parent="1c1d494c118603dd-4" vertex="1">
          <mxGeometry x="100" y="380" width="80" height="80" as="geometry" />
        </mxCell>
        <mxCell id="T-8hnJG5RtbYNzTZ3OcR-25" value="Prepare the product for shipment" style="rounded=1;whiteSpace=wrap;html=1;" parent="1c1d494c118603dd-4" vertex="1">
          <mxGeometry x="80" y="610" width="120" height="60" as="geometry" />
        </mxCell>
        <mxCell id="T-8hnJG5RtbYNzTZ3OcR-15" style="edgeStyle=orthogonalEdgeStyle;rounded=0;orthogonalLoop=1;jettySize=auto;html=1;exitX=0;exitY=0.5;exitDx=0;exitDy=0;entryX=0.5;entryY=0;entryDx=0;entryDy=0;" parent="1c1d494c118603dd-1" source="T-8hnJG5RtbYNzTZ3OcR-13" target="T-8hnJG5RtbYNzTZ3OcR-20" edge="1">
          <mxGeometry relative="1" as="geometry">
            <mxPoint x="400" y="440" as="targetPoint" />
          </mxGeometry>
        </mxCell>
        <mxCell id="T-8hnJG5RtbYNzTZ3OcR-16" value="If Product available" style="edgeLabel;html=1;align=center;verticalAlign=middle;resizable=0;points=[];" parent="T-8hnJG5RtbYNzTZ3OcR-15" vertex="1" connectable="0">
          <mxGeometry x="-0.7207" y="-4" relative="1" as="geometry">
            <mxPoint x="-32" y="4" as="offset" />
          </mxGeometry>
        </mxCell>
        <mxCell id="T-8hnJG5RtbYNzTZ3OcR-22" style="edgeStyle=orthogonalEdgeStyle;rounded=0;orthogonalLoop=1;jettySize=auto;html=1;entryX=0.5;entryY=0;entryDx=0;entryDy=0;" parent="1c1d494c118603dd-1" source="T-8hnJG5RtbYNzTZ3OcR-20" target="T-8hnJG5RtbYNzTZ3OcR-24" edge="1">
          <mxGeometry relative="1" as="geometry">
            <mxPoint x="130" y="500" as="targetPoint" />
          </mxGeometry>
        </mxCell>
        <mxCell id="T-8hnJG5RtbYNzTZ3OcR-27" style="edgeStyle=orthogonalEdgeStyle;rounded=0;orthogonalLoop=1;jettySize=auto;html=1;entryX=0.5;entryY=0;entryDx=0;entryDy=0;" parent="1c1d494c118603dd-1" source="T-8hnJG5RtbYNzTZ3OcR-25" target="T-8hnJG5RtbYNzTZ3OcR-28" edge="1">
          <mxGeometry relative="1" as="geometry">
            <mxPoint x="370" y="700" as="targetPoint" />
            <Array as="points">
              <mxPoint x="371" y="660" />
              <mxPoint x="371" y="720" />
            </Array>
          </mxGeometry>
        </mxCell>
        <mxCell id="T-8hnJG5RtbYNzTZ3OcR-29" style="edgeStyle=orthogonalEdgeStyle;rounded=0;orthogonalLoop=1;jettySize=auto;html=1;entryX=0.5;entryY=0;entryDx=0;entryDy=0;" parent="1c1d494c118603dd-1" source="T-8hnJG5RtbYNzTZ3OcR-28" target="T-8hnJG5RtbYNzTZ3OcR-30" edge="1">
          <mxGeometry relative="1" as="geometry">
            <mxPoint x="110" y="750" as="targetPoint" />
          </mxGeometry>
        </mxCell>
      </root>
    </mxGraphModel>
  </diagram>
</mxfile>
